<?xml version="1.0" encoding="UTF-8" standalone="no"?>
<!DOCTYPE svg PUBLIC "-//W3C//DTD SVG 1.1//EN" "http://www.w3.org/Graphics/SVG/1.1/DTD/svg11.dtd">
<svg width="100%" height="100%" viewBox="0 0 256 56" version="1.1" xmlns="http://www.w3.org/2000/svg" xmlns:xlink="http://www.w3.org/1999/xlink" xml:space="preserve" xmlns:serif="http://www.serif.com/" style="fill-rule:evenodd;clip-rule:evenodd;stroke-linejoin:round;stroke-miterlimit:2;">
    <g transform="matrix(0.0628065,0,0,0.0628065,87.8039,-10.3119)">
        <path d="M430.045,622.66L430.044,622.66L430.044,336.509C430.044,292.355 465.891,256.509 510.044,256.509C554.197,256.509 590.044,292.355 590.044,336.509L590.044,403.26C579.123,407.442 568.389,412.536 557.941,418.568C536.126,431.163 517.229,446.882 501.489,464.836C511.668,455.917 522.862,447.858 535.024,440.836C635.376,382.898 763.887,417.332 821.824,517.683C860.647,584.926 857.994,664.812 821.826,727.637L821.827,727.638L708.751,923.49C686.675,961.728 637.707,974.849 599.469,952.772C561.232,930.696 548.111,881.728 570.187,843.49L573.563,837.643C585.112,839.482 596.955,840.438 609.019,840.438C634.19,840.438 658.398,836.279 680.991,828.612C595.205,845.661 504.313,807.549 458.176,727.636C439.06,694.527 430,658.353 430.045,622.66ZM641.767,542.581C686.063,542.581 722.025,578.544 722.025,622.839C722.025,667.135 686.063,703.097 641.767,703.097C597.472,703.097 561.509,667.135 561.509,622.839C561.509,578.544 597.472,542.581 641.767,542.581Z" style="fill:url(#_Linear1);"/>
    </g>
    <g transform="matrix(1,0,0,1,1.82444,8.06556)">
        <path d="M23.663,10.442L36.043,10.442L36.043,11.428L24.798,11.428L24.798,18.85L35.372,18.85L35.372,19.836L24.798,19.836L24.798,27.985L36.172,27.985L36.172,28.971L23.663,28.971L23.663,10.442ZM37.152,10.442L38.468,10.442L44.296,18.591L50.254,10.442L58.358,0.092L45.044,19.447L51.905,28.971L50.538,28.971L44.296,20.304L38.029,28.971L36.688,28.971L43.6,19.447L37.152,10.442L37.152,10.442ZM52.395,11.428L52.395,10.442L66.503,10.442L66.503,11.428L60.004,11.428L60.004,28.971L58.868,28.971L58.868,11.428L52.395,11.428ZM8.176,10.442L9.594,10.442L29.155,39.777L21.071,28.971L9.362,11.844L9.31,28.971L8.176,28.971L8.176,10.442ZM66.389,27.687C66.156,27.687 65.983,27.507 65.983,27.275C65.983,27.042 66.156,26.862 66.388,26.862C66.623,26.862 66.794,27.042 66.794,27.275C66.794,27.507 66.623,27.687 66.388,27.687L66.389,27.687ZM67.504,26.601L68.111,26.601C68.12,26.931 68.36,27.152 68.713,27.152C69.108,27.152 69.331,26.915 69.331,26.468L69.331,23.644L69.949,23.644L69.949,26.471C69.949,27.275 69.486,27.737 68.718,27.737C67.998,27.737 67.504,27.288 67.504,26.601L67.504,26.601ZM70.758,26.566L71.371,26.566C71.423,26.945 71.793,27.186 72.326,27.186C72.822,27.186 73.187,26.928 73.187,26.574C73.187,26.269 72.955,26.086 72.428,25.962L71.914,25.837C71.194,25.668 70.865,25.319 70.865,24.732C70.865,24.02 71.445,23.546 72.314,23.546C73.123,23.546 73.714,24.02 73.75,24.693L73.148,24.693C73.09,24.325 72.77,24.095 72.306,24.095C71.817,24.095 71.492,24.33 71.492,24.69C71.492,24.976 71.702,25.139 72.221,25.261L72.66,25.369C73.476,25.56 73.813,25.892 73.813,26.493C73.813,27.258 73.222,27.737 72.279,27.737C71.396,27.737 70.802,27.28 70.758,26.565L70.758,26.566Z" style="fill:rgb(77,77,77);fill-rule:nonzero;"/>
    </g>
    <g transform="matrix(0.996548,0,0,0.996548,47.6981,-14.413)">
        <g transform="matrix(12,0,0,12,133.926,42.7041)">
            <path d="M0.306,-0.455C0.417,-0.455 0.508,-0.386 0.508,-0.247C0.508,-0.11 0.417,-0.04 0.306,-0.04C0.19,-0.04 0.104,-0.125 0.104,-0.248C0.104,-0.371 0.192,-0.455 0.306,-0.455ZM0.055,-0.7L0.055,-0L0.103,-0L0.103,-0.109C0.144,-0.034 0.225,0.008 0.309,0.008C0.447,0.008 0.556,-0.083 0.556,-0.247C0.556,-0.41 0.446,-0.502 0.308,-0.502C0.223,-0.502 0.143,-0.466 0.103,-0.386L0.103,-0.7L0.055,-0.7Z" style="fill:rgb(77,77,77);fill-rule:nonzero;"/>
        </g>
        <g transform="matrix(12,0,0,12,141.978,42.7041)">
            <path d="M0.283,0.007C0.422,0.007 0.534,-0.089 0.534,-0.246C0.534,-0.403 0.422,-0.503 0.283,-0.503C0.144,-0.503 0.032,-0.403 0.032,-0.246C0.032,-0.089 0.144,0.007 0.283,0.007ZM0.283,-0.041C0.171,-0.041 0.08,-0.118 0.08,-0.246C0.08,-0.374 0.171,-0.457 0.283,-0.457C0.395,-0.457 0.486,-0.374 0.486,-0.246C0.486,-0.118 0.395,-0.041 0.283,-0.041Z" style="fill:rgb(77,77,77);fill-rule:nonzero;"/>
        </g>
        <g transform="matrix(12,0,0,12,149.682,42.7041)">
            <path d="M0.104,-0.496L0.104,-0L0.055,-0L0.055,-0.496L0.104,-0.496ZM0.041,-0.655C0.041,-0.707 0.12,-0.707 0.12,-0.655C0.12,-0.603 0.041,-0.603 0.041,-0.655Z" style="fill:rgb(77,77,77);fill-rule:nonzero;"/>
        </g>
        <g transform="matrix(12,0,0,12,152.55,42.7041)">
            <rect x="0.055" y="-0.7" width="0.049" height="0.7" style="fill:rgb(77,77,77);fill-rule:nonzero;"/>
        </g>
        <g transform="matrix(12,0,0,12,155.382,42.7041)">
            <path d="M0.278,0.007C0.357,0.007 0.443,-0.025 0.491,-0.088L0.456,-0.116C0.419,-0.067 0.343,-0.041 0.278,-0.041C0.176,-0.041 0.087,-0.108 0.077,-0.224L0.522,-0.224C0.541,-0.417 0.417,-0.502 0.278,-0.502C0.139,-0.502 0.027,-0.395 0.027,-0.247C0.027,-0.09 0.139,0.007 0.278,0.007ZM0.077,-0.267C0.088,-0.388 0.176,-0.457 0.278,-0.457C0.397,-0.457 0.477,-0.389 0.478,-0.267L0.077,-0.267Z" style="fill:rgb(77,77,77);fill-rule:nonzero;"/>
        </g>
        <g transform="matrix(12,0,0,12,163.11,42.7041)">
            <path d="M0.055,-0.494L0.055,-0L0.104,-0L0.104,-0.288C0.104,-0.378 0.175,-0.452 0.267,-0.453C0.296,-0.453 0.325,-0.446 0.351,-0.43L0.373,-0.47C0.34,-0.49 0.304,-0.5 0.267,-0.499C0.204,-0.499 0.134,-0.473 0.103,-0.406L0.101,-0.494L0.055,-0.494Z" style="fill:rgb(77,77,77);fill-rule:nonzero;"/>
        </g>
        <g transform="matrix(12,0,0,12,168.414,42.7041)">
            <path d="M0.306,-0.038C0.193,-0.038 0.106,-0.125 0.106,-0.246C0.106,-0.367 0.191,-0.454 0.306,-0.454C0.418,-0.454 0.508,-0.386 0.508,-0.247C0.508,-0.108 0.418,-0.038 0.306,-0.038ZM0.102,0.206L0.102,-0.114C0.144,-0.032 0.222,0.009 0.306,0.009C0.445,0.009 0.557,-0.081 0.557,-0.247C0.557,-0.406 0.451,-0.496 0.317,-0.501C0.221,-0.501 0.142,-0.452 0.103,-0.377L0.103,-0.494L0.055,-0.494L0.055,0.206L0.102,0.206Z" style="fill:rgb(77,77,77);fill-rule:nonzero;"/>
        </g>
        <g transform="matrix(12,0,0,12,176.478,42.7041)">
            <rect x="0.055" y="-0.7" width="0.049" height="0.7" style="fill:rgb(77,77,77);fill-rule:nonzero;"/>
        </g>
        <g transform="matrix(12,0,0,12,179.31,42.7041)">
            <path d="M0.481,-0.494L0.481,-0.386C0.44,-0.463 0.359,-0.5 0.279,-0.5C0.141,-0.5 0.028,-0.398 0.028,-0.247C0.028,-0.096 0.141,0.008 0.279,0.008C0.359,0.008 0.433,-0.028 0.481,-0.105L0.481,-0L0.53,-0L0.53,-0.494L0.481,-0.494ZM0.279,-0.453C0.554,-0.453 0.554,-0.04 0.279,-0.04C0.167,-0.04 0.077,-0.123 0.077,-0.247C0.077,-0.371 0.167,-0.453 0.279,-0.453Z" style="fill:rgb(77,77,77);fill-rule:nonzero;"/>
        </g>
        <g transform="matrix(12,0,0,12,187.206,42.7041)">
            <path d="M0.12,-0.638L0.12,-0.494L0.015,-0.494L0.015,-0.453L0.12,-0.453L0.12,-0.152C0.12,-0.055 0.154,0.007 0.259,0.007C0.29,0.007 0.321,-0.003 0.352,-0.018L0.335,-0.058C0.31,-0.046 0.283,-0.038 0.259,-0.038C0.182,-0.038 0.168,-0.085 0.168,-0.152L0.168,-0.453L0.336,-0.453L0.336,-0.494L0.168,-0.494L0.168,-0.643L0.12,-0.638Z" style="fill:rgb(77,77,77);fill-rule:nonzero;"/>
        </g>
        <g transform="matrix(12,0,0,12,192.534,42.7041)">
            <path d="M0.278,0.007C0.357,0.007 0.443,-0.025 0.491,-0.088L0.456,-0.116C0.419,-0.067 0.343,-0.041 0.278,-0.041C0.176,-0.041 0.087,-0.108 0.077,-0.224L0.522,-0.224C0.541,-0.417 0.417,-0.502 0.278,-0.502C0.139,-0.502 0.027,-0.395 0.027,-0.247C0.027,-0.09 0.139,0.007 0.278,0.007ZM0.077,-0.267C0.088,-0.388 0.176,-0.457 0.278,-0.457C0.397,-0.457 0.477,-0.389 0.478,-0.267L0.077,-0.267Z" style="fill:rgb(77,77,77);fill-rule:nonzero;"/>
        </g>
        <g transform="matrix(12,0,0,12,133.926,50.7318)">
            <path d="M0.055,-0.494L0.055,-0L0.104,-0L0.104,-0.275C0.104,-0.377 0.175,-0.454 0.277,-0.455C0.384,-0.456 0.453,-0.396 0.453,-0.284L0.453,-0L0.502,-0L0.502,-0.285C0.502,-0.422 0.411,-0.503 0.279,-0.503C0.21,-0.502 0.141,-0.474 0.103,-0.406L0.103,-0.494L0.055,-0.494Z" style="fill:rgb(77,77,77);fill-rule:nonzero;"/>
        </g>
        <g transform="matrix(12,0,0,12,141.426,50.7318)">
            <path d="M0.278,0.007C0.357,0.007 0.443,-0.025 0.491,-0.088L0.456,-0.116C0.419,-0.067 0.343,-0.041 0.278,-0.041C0.176,-0.041 0.087,-0.108 0.077,-0.224L0.522,-0.224C0.541,-0.417 0.417,-0.502 0.278,-0.502C0.139,-0.502 0.027,-0.395 0.027,-0.247C0.027,-0.09 0.139,0.007 0.278,0.007ZM0.077,-0.267C0.088,-0.388 0.176,-0.457 0.278,-0.457C0.397,-0.457 0.477,-0.389 0.478,-0.267L0.077,-0.267Z" style="fill:rgb(77,77,77);fill-rule:nonzero;"/>
        </g>
        <g transform="matrix(12,0,0,12,149.154,50.7318)">
            <path d="M0.082,-0.494L0.023,-0.494L0.023,-0.492L0.2,-0.256L0.009,-0.002L0.009,-0L0.067,-0L0.229,-0.221L0.391,-0L0.449,-0L0.449,-0.002L0.258,-0.256L0.435,-0.492L0.435,-0.494L0.376,-0.494L0.229,-0.292L0.082,-0.494Z" style="fill:rgb(77,77,77);fill-rule:nonzero;"/>
        </g>
        <g transform="matrix(12,0,0,12,155.586,50.7318)">
            <path d="M0.12,-0.638L0.12,-0.494L0.015,-0.494L0.015,-0.453L0.12,-0.453L0.12,-0.152C0.12,-0.055 0.154,0.007 0.259,0.007C0.29,0.007 0.321,-0.003 0.352,-0.018L0.335,-0.058C0.31,-0.046 0.283,-0.038 0.259,-0.038C0.182,-0.038 0.168,-0.085 0.168,-0.152L0.168,-0.453L0.336,-0.453L0.336,-0.494L0.168,-0.494L0.168,-0.643L0.12,-0.638Z" style="fill:rgb(77,77,77);fill-rule:nonzero;"/>
        </g>
    </g>
    <defs>
        <linearGradient id="_Linear1" x1="0" y1="0" x2="1" y2="0" gradientUnits="userSpaceOnUse" gradientTransform="matrix(-155.653,-706.983,706.983,-155.653,662.32,963.491)"><stop offset="0" style="stop-color:rgb(255,255,156);stop-opacity:1"/><stop offset="1" style="stop-color:rgb(255,255,77);stop-opacity:1"/></linearGradient>
    </defs>
</svg>
